<mxfile host="app.diagrams.net" modified="2024-01-29T17:26:34.981Z" agent="Mozilla/5.0 (X11; Ubuntu; Linux x86_64; rv:122.0) Gecko/20100101 Firefox/122.0" etag="inCRocxIQkGYTjGHE-3l" version="23.0.2" type="device">
  <diagram id="Xx9E0T2Yht3KkegQIIjF" name="Page-1">
    <mxGraphModel dx="1920" dy="1153" grid="1" gridSize="10" guides="1" tooltips="1" connect="1" arrows="1" fold="1" page="1" pageScale="1" pageWidth="827" pageHeight="1169" math="0" shadow="0">
      <root>
        <mxCell id="0" />
        <mxCell id="1" parent="0" />
        <mxCell id="5PvRvrnBs6BkQdJpTkBt-170" style="edgeStyle=orthogonalEdgeStyle;curved=1;rounded=0;orthogonalLoop=1;jettySize=auto;html=1;exitX=1;exitY=0.75;exitDx=0;exitDy=0;entryX=1.013;entryY=0.344;entryDx=0;entryDy=0;entryPerimeter=0;strokeWidth=2;fillColor=#e51400;strokeColor=#B20000;" parent="1" edge="1">
          <mxGeometry relative="1" as="geometry">
            <Array as="points">
              <mxPoint x="940" y="820" />
              <mxPoint x="940" y="883" />
            </Array>
            <mxPoint x="890.04" y="882.98" as="targetPoint" />
          </mxGeometry>
        </mxCell>
        <mxCell id="WkDUcd401ZdPSmuAqSBH-54" value="/parameter_events" style="rounded=0;whiteSpace=wrap;html=1;" parent="1" vertex="1">
          <mxGeometry x="960" y="670" width="122" height="20" as="geometry" />
        </mxCell>
        <mxCell id="WkDUcd401ZdPSmuAqSBH-55" value="rcl_interfaces/msg/ParameterEvent" style="text;html=1;strokeColor=none;fillColor=none;align=center;verticalAlign=middle;whiteSpace=wrap;rounded=0;fontColor=#FF0080;" parent="1" vertex="1">
          <mxGeometry x="930" y="650" width="210" height="20" as="geometry" />
        </mxCell>
        <mxCell id="WkDUcd401ZdPSmuAqSBH-73" value="/joint_state_publisher" style="ellipse;whiteSpace=wrap;html=1;strokeWidth=1;" parent="1" vertex="1">
          <mxGeometry x="700" y="1065" width="150" height="50" as="geometry" />
        </mxCell>
        <mxCell id="WkDUcd401ZdPSmuAqSBH-74" value="/joint_states" style="rounded=0;whiteSpace=wrap;html=1;" parent="1" vertex="1">
          <mxGeometry x="950" y="1005" width="101" height="30" as="geometry" />
        </mxCell>
        <mxCell id="WkDUcd401ZdPSmuAqSBH-75" value="std_msgs/msg/String" style="text;html=1;strokeColor=none;fillColor=none;align=center;verticalAlign=middle;whiteSpace=wrap;rounded=0;fontColor=#FF0080;" parent="1" vertex="1">
          <mxGeometry x="490" y="985" width="171.5" height="20" as="geometry" />
        </mxCell>
        <mxCell id="WkDUcd401ZdPSmuAqSBH-76" value="/robot_description" style="rounded=0;whiteSpace=wrap;html=1;" parent="1" vertex="1">
          <mxGeometry x="525.5" y="1005" width="106" height="30" as="geometry" />
        </mxCell>
        <mxCell id="WkDUcd401ZdPSmuAqSBH-77" value="sensor_msgs/msg/JointState" style="text;html=1;strokeColor=none;fillColor=none;align=center;verticalAlign=middle;whiteSpace=wrap;rounded=0;fontColor=#FF0080;" parent="1" vertex="1">
          <mxGeometry x="920" y="985" width="170" height="20" as="geometry" />
        </mxCell>
        <mxCell id="WkDUcd401ZdPSmuAqSBH-79" style="edgeStyle=orthogonalEdgeStyle;curved=0;rounded=0;orthogonalLoop=1;jettySize=auto;html=1;strokeWidth=2;fillColor=#0050ef;strokeColor=#001DBC;entryX=1;entryY=0.5;entryDx=0;entryDy=0;exitX=0;exitY=1;exitDx=0;exitDy=0;" parent="1" source="WkDUcd401ZdPSmuAqSBH-90" target="WkDUcd401ZdPSmuAqSBH-54" edge="1">
          <mxGeometry relative="1" as="geometry">
            <mxPoint x="1180" y="740" as="targetPoint" />
            <Array as="points">
              <mxPoint x="722" y="870" />
              <mxPoint x="1180" y="870" />
              <mxPoint x="1180" y="680" />
            </Array>
            <mxPoint x="1463.5000000000007" y="740" as="sourcePoint" />
          </mxGeometry>
        </mxCell>
        <mxCell id="WkDUcd401ZdPSmuAqSBH-80" value="/robot_state_publisher" style="ellipse;whiteSpace=wrap;html=1;strokeWidth=1;" parent="1" vertex="1">
          <mxGeometry x="710" y="920" width="150" height="50" as="geometry" />
        </mxCell>
        <mxCell id="WkDUcd401ZdPSmuAqSBH-82" value="/tf" style="rounded=0;whiteSpace=wrap;html=1;" parent="1" vertex="1">
          <mxGeometry x="330.75" y="880" width="41" height="20" as="geometry" />
        </mxCell>
        <mxCell id="WkDUcd401ZdPSmuAqSBH-83" value="/tf_static" style="rounded=0;whiteSpace=wrap;html=1;" parent="1" vertex="1">
          <mxGeometry x="317.5" y="770" width="55.5" height="31" as="geometry" />
        </mxCell>
        <mxCell id="WkDUcd401ZdPSmuAqSBH-84" value="tf2_msgs/msg/TFMessage" style="text;html=1;strokeColor=none;fillColor=none;align=center;verticalAlign=middle;whiteSpace=wrap;rounded=0;fontColor=#FF0080;" parent="1" vertex="1">
          <mxGeometry x="269" y="860" width="177" height="20" as="geometry" />
        </mxCell>
        <mxCell id="WkDUcd401ZdPSmuAqSBH-86" value="tf2_msgs/msg/TFMessage" style="text;html=1;strokeColor=none;fillColor=none;align=center;verticalAlign=middle;whiteSpace=wrap;rounded=0;fontColor=#FF0080;" parent="1" vertex="1">
          <mxGeometry x="267.5" y="750" width="177" height="20" as="geometry" />
        </mxCell>
        <mxCell id="WkDUcd401ZdPSmuAqSBH-90" value="/static_transform_publisher" style="ellipse;whiteSpace=wrap;html=1;strokeWidth=1;" parent="1" vertex="1">
          <mxGeometry x="700" y="790" width="150" height="50" as="geometry" />
        </mxCell>
        <mxCell id="1j3mInvovo0tcs0GE_Rf-1" value="/rosout" style="rounded=0;whiteSpace=wrap;html=1;" vertex="1" parent="1">
          <mxGeometry x="711.5" y="670" width="54" height="20" as="geometry" />
        </mxCell>
        <mxCell id="1j3mInvovo0tcs0GE_Rf-2" value="rcl_interfaces/msg/Log" style="text;html=1;strokeColor=none;fillColor=none;align=center;verticalAlign=middle;whiteSpace=wrap;rounded=0;fontColor=#FF0080;" vertex="1" parent="1">
          <mxGeometry x="661.5" y="650" width="136" height="20" as="geometry" />
        </mxCell>
        <mxCell id="1j3mInvovo0tcs0GE_Rf-10" value="/kobuki" style="ellipse;whiteSpace=wrap;html=1;" vertex="1" parent="1">
          <mxGeometry x="780" y="290" width="119" height="40" as="geometry" />
        </mxCell>
        <mxCell id="1j3mInvovo0tcs0GE_Rf-11" value="/cmd_vel" style="rounded=0;whiteSpace=wrap;html=1;" vertex="1" parent="1">
          <mxGeometry x="1432.5" y="110" width="80" height="30" as="geometry" />
        </mxCell>
        <mxCell id="1j3mInvovo0tcs0GE_Rf-12" value="/commands/controller_info" style="rounded=0;whiteSpace=wrap;html=1;" vertex="1" parent="1">
          <mxGeometry x="1396" y="180" width="169" height="40" as="geometry" />
        </mxCell>
        <mxCell id="1j3mInvovo0tcs0GE_Rf-13" value="/commands/digital_output" style="rounded=0;whiteSpace=wrap;html=1;" vertex="1" parent="1">
          <mxGeometry x="1405" y="260" width="160" height="30" as="geometry" />
        </mxCell>
        <mxCell id="1j3mInvovo0tcs0GE_Rf-14" value="/commands/external_power" style="rounded=0;whiteSpace=wrap;html=1;" vertex="1" parent="1">
          <mxGeometry x="1400" y="335" width="170" height="40" as="geometry" />
        </mxCell>
        <mxCell id="1j3mInvovo0tcs0GE_Rf-15" value="/commands/led1" style="rounded=0;whiteSpace=wrap;html=1;" vertex="1" parent="1">
          <mxGeometry x="1425" y="420" width="120" height="30" as="geometry" />
        </mxCell>
        <mxCell id="1j3mInvovo0tcs0GE_Rf-16" value="/commands/led2" style="rounded=0;whiteSpace=wrap;html=1;" vertex="1" parent="1">
          <mxGeometry x="1418.5" y="490" width="118" height="30" as="geometry" />
        </mxCell>
        <mxCell id="1j3mInvovo0tcs0GE_Rf-17" value="/commands/motor_power" style="rounded=0;whiteSpace=wrap;html=1;" vertex="1" parent="1">
          <mxGeometry x="1411.25" y="630" width="145" height="40" as="geometry" />
        </mxCell>
        <mxCell id="1j3mInvovo0tcs0GE_Rf-18" value="/commands/reset_odometry" style="rounded=0;whiteSpace=wrap;html=1;" vertex="1" parent="1">
          <mxGeometry x="1400" y="560" width="160" height="30" as="geometry" />
        </mxCell>
        <mxCell id="1j3mInvovo0tcs0GE_Rf-19" value="/commands/sound" style="rounded=0;whiteSpace=wrap;html=1;" vertex="1" parent="1">
          <mxGeometry x="1430" y="50" width="110" height="30" as="geometry" />
        </mxCell>
        <mxCell id="1j3mInvovo0tcs0GE_Rf-20" value="kobuki_ros_interfaces/msg/Sound" style="text;html=1;strokeColor=none;fillColor=none;align=center;verticalAlign=middle;whiteSpace=wrap;rounded=0;fontColor=#FF0080;" vertex="1" parent="1">
          <mxGeometry x="1390" y="30" width="210" height="20" as="geometry" />
        </mxCell>
        <mxCell id="1j3mInvovo0tcs0GE_Rf-21" value="std_msgs/msg/Empty" style="text;html=1;strokeColor=none;fillColor=none;align=center;verticalAlign=middle;whiteSpace=wrap;rounded=0;fontColor=#FF0080;" vertex="1" parent="1">
          <mxGeometry x="1412.5" y="540" width="135" height="20" as="geometry" />
        </mxCell>
        <mxCell id="1j3mInvovo0tcs0GE_Rf-22" value="kobuki_ros_interfaces/msg/MotorPower" style="text;html=1;strokeColor=none;fillColor=none;align=center;verticalAlign=middle;whiteSpace=wrap;rounded=0;fontColor=#FF0080;" vertex="1" parent="1">
          <mxGeometry x="1362.5" y="610" width="230" height="20" as="geometry" />
        </mxCell>
        <mxCell id="1j3mInvovo0tcs0GE_Rf-23" value="kobuki_ros_interfaces/msg/Led" style="text;html=1;strokeColor=none;fillColor=none;align=center;verticalAlign=middle;whiteSpace=wrap;rounded=0;fontColor=#FF0080;" vertex="1" parent="1">
          <mxGeometry x="1380" y="470" width="210" height="20" as="geometry" />
        </mxCell>
        <mxCell id="1j3mInvovo0tcs0GE_Rf-24" value="kobuki_ros_interfaces/msg/Led" style="text;html=1;strokeColor=none;fillColor=none;align=center;verticalAlign=middle;whiteSpace=wrap;rounded=0;fontColor=#FF0080;" vertex="1" parent="1">
          <mxGeometry x="1380" y="400" width="210" height="20" as="geometry" />
        </mxCell>
        <mxCell id="1j3mInvovo0tcs0GE_Rf-25" value="kobuki_ros_interfaces/msg/ExternalPower" style="text;html=1;strokeColor=none;fillColor=none;align=center;verticalAlign=middle;whiteSpace=wrap;rounded=0;fontColor=#FF0080;" vertex="1" parent="1">
          <mxGeometry x="1360" y="315" width="250" height="20" as="geometry" />
        </mxCell>
        <mxCell id="1j3mInvovo0tcs0GE_Rf-26" value="kobuki_ros_interfaces/msg/ControllerInfo" style="text;html=1;strokeColor=none;fillColor=none;align=center;verticalAlign=middle;whiteSpace=wrap;rounded=0;fontColor=#FF0080;" vertex="1" parent="1">
          <mxGeometry x="1370" y="160" width="230" height="20" as="geometry" />
        </mxCell>
        <mxCell id="1j3mInvovo0tcs0GE_Rf-27" value="kobuki_ros_interfaces/msg/DigitalOutput" style="text;html=1;strokeColor=none;fillColor=none;align=center;verticalAlign=middle;whiteSpace=wrap;rounded=0;fontColor=#FF0080;" vertex="1" parent="1">
          <mxGeometry x="1370" y="240" width="230" height="20" as="geometry" />
        </mxCell>
        <mxCell id="1j3mInvovo0tcs0GE_Rf-28" value="geometry_msgs/msg/Twist" style="text;html=1;strokeColor=none;fillColor=none;align=center;verticalAlign=middle;whiteSpace=wrap;rounded=0;fontColor=#FF0080;" vertex="1" parent="1">
          <mxGeometry x="1390" y="90" width="165" height="20" as="geometry" />
        </mxCell>
        <mxCell id="1j3mInvovo0tcs0GE_Rf-34" style="edgeStyle=orthogonalEdgeStyle;curved=0;rounded=0;orthogonalLoop=1;jettySize=auto;html=1;strokeWidth=2;fillColor=#0050ef;strokeColor=#001DBC;entryX=0;entryY=0.5;entryDx=0;entryDy=0;exitX=1;exitY=0.5;exitDx=0;exitDy=0;" edge="1" parent="1" source="WkDUcd401ZdPSmuAqSBH-73" target="WkDUcd401ZdPSmuAqSBH-74">
          <mxGeometry relative="1" as="geometry">
            <mxPoint x="870" y="1089.4099999999999" as="targetPoint" />
            <Array as="points">
              <mxPoint x="850" y="1089" />
              <mxPoint x="900" y="1089" />
              <mxPoint x="900" y="1020" />
            </Array>
            <mxPoint x="1153.5000000000007" y="1089.4099999999999" as="sourcePoint" />
          </mxGeometry>
        </mxCell>
        <mxCell id="1j3mInvovo0tcs0GE_Rf-35" style="edgeStyle=orthogonalEdgeStyle;curved=0;rounded=0;orthogonalLoop=1;jettySize=auto;html=1;strokeWidth=2;fillColor=#0050ef;strokeColor=#001DBC;entryX=0;entryY=0.5;entryDx=0;entryDy=0;exitX=0;exitY=0.5;exitDx=0;exitDy=0;" edge="1" parent="1" source="WkDUcd401ZdPSmuAqSBH-80" target="WkDUcd401ZdPSmuAqSBH-76">
          <mxGeometry relative="1" as="geometry">
            <mxPoint x="416.5" y="930" as="targetPoint" />
            <Array as="points">
              <mxPoint x="480" y="945" />
              <mxPoint x="480" y="1020" />
            </Array>
            <mxPoint x="700.0000000000007" y="930" as="sourcePoint" />
          </mxGeometry>
        </mxCell>
        <mxCell id="1j3mInvovo0tcs0GE_Rf-36" style="edgeStyle=orthogonalEdgeStyle;curved=0;rounded=0;orthogonalLoop=1;jettySize=auto;html=1;strokeWidth=2;fillColor=#e51400;strokeColor=#B20000;exitX=1;exitY=0.5;exitDx=0;exitDy=0;entryX=1;entryY=1;entryDx=0;entryDy=0;" edge="1" parent="1" source="WkDUcd401ZdPSmuAqSBH-74" target="WkDUcd401ZdPSmuAqSBH-80">
          <mxGeometry relative="1" as="geometry">
            <Array as="points">
              <mxPoint x="1107" y="1020" />
              <mxPoint x="1107" y="980" />
              <mxPoint x="838" y="980" />
            </Array>
            <mxPoint x="1077" y="1019.66" as="sourcePoint" />
            <mxPoint x="1070" y="900" as="targetPoint" />
          </mxGeometry>
        </mxCell>
        <mxCell id="1j3mInvovo0tcs0GE_Rf-37" style="edgeStyle=orthogonalEdgeStyle;curved=0;rounded=0;orthogonalLoop=1;jettySize=auto;html=1;strokeWidth=2;fillColor=#e51400;strokeColor=#B20000;exitX=1;exitY=0.5;exitDx=0;exitDy=0;entryX=0;entryY=0.5;entryDx=0;entryDy=0;" edge="1" parent="1" source="WkDUcd401ZdPSmuAqSBH-76" target="WkDUcd401ZdPSmuAqSBH-73">
          <mxGeometry relative="1" as="geometry">
            <Array as="points">
              <mxPoint x="670" y="1020" />
              <mxPoint x="670" y="1090" />
            </Array>
            <mxPoint x="640" y="1019.66" as="sourcePoint" />
            <mxPoint x="1100" y="1019.66" as="targetPoint" />
          </mxGeometry>
        </mxCell>
        <mxCell id="1j3mInvovo0tcs0GE_Rf-38" style="edgeStyle=orthogonalEdgeStyle;curved=0;rounded=0;orthogonalLoop=1;jettySize=auto;html=1;strokeWidth=2;fillColor=#0050ef;strokeColor=#001DBC;entryX=1;entryY=0.5;entryDx=0;entryDy=0;exitX=0;exitY=0.5;exitDx=0;exitDy=0;" edge="1" parent="1" source="WkDUcd401ZdPSmuAqSBH-90" target="WkDUcd401ZdPSmuAqSBH-83">
          <mxGeometry relative="1" as="geometry">
            <mxPoint x="400" y="814.41" as="targetPoint" />
            <Array as="points">
              <mxPoint x="494" y="815" />
              <mxPoint x="494" y="786" />
            </Array>
            <mxPoint x="683.5000000000007" y="814.41" as="sourcePoint" />
          </mxGeometry>
        </mxCell>
        <mxCell id="1j3mInvovo0tcs0GE_Rf-39" style="edgeStyle=orthogonalEdgeStyle;curved=0;rounded=0;orthogonalLoop=1;jettySize=auto;html=1;strokeWidth=2;fillColor=#0050ef;strokeColor=#001DBC;entryX=1;entryY=0.5;entryDx=0;entryDy=0;exitX=0;exitY=0.5;exitDx=0;exitDy=0;" edge="1" parent="1" source="WkDUcd401ZdPSmuAqSBH-80" target="WkDUcd401ZdPSmuAqSBH-82">
          <mxGeometry relative="1" as="geometry">
            <mxPoint x="390" y="889.41" as="targetPoint" />
            <Array as="points">
              <mxPoint x="480" y="945" />
              <mxPoint x="480" y="890" />
            </Array>
            <mxPoint x="673.5000000000007" y="889.41" as="sourcePoint" />
          </mxGeometry>
        </mxCell>
        <mxCell id="1j3mInvovo0tcs0GE_Rf-40" style="edgeStyle=orthogonalEdgeStyle;curved=0;rounded=0;orthogonalLoop=1;jettySize=auto;html=1;strokeWidth=2;fillColor=#0050ef;strokeColor=#001DBC;entryX=1;entryY=0.5;entryDx=0;entryDy=0;exitX=0;exitY=0.5;exitDx=0;exitDy=0;" edge="1" parent="1" source="WkDUcd401ZdPSmuAqSBH-80" target="WkDUcd401ZdPSmuAqSBH-83">
          <mxGeometry relative="1" as="geometry">
            <mxPoint x="530" y="869.41" as="targetPoint" />
            <Array as="points">
              <mxPoint x="480" y="945" />
              <mxPoint x="480" y="840" />
              <mxPoint x="420" y="840" />
              <mxPoint x="420" y="786" />
            </Array>
            <mxPoint x="813.5000000000007" y="869.41" as="sourcePoint" />
          </mxGeometry>
        </mxCell>
        <mxCell id="1j3mInvovo0tcs0GE_Rf-41" style="edgeStyle=orthogonalEdgeStyle;curved=0;rounded=0;orthogonalLoop=1;jettySize=auto;html=1;strokeWidth=2;fillColor=#0050ef;strokeColor=#001DBC;entryX=0.5;entryY=1;entryDx=0;entryDy=0;exitX=0;exitY=0;exitDx=0;exitDy=0;" edge="1" parent="1" source="WkDUcd401ZdPSmuAqSBH-90" target="1j3mInvovo0tcs0GE_Rf-1">
          <mxGeometry relative="1" as="geometry">
            <mxPoint x="710" y="740" as="targetPoint" />
            <Array as="points">
              <mxPoint x="722" y="790" />
              <mxPoint x="722" y="740" />
              <mxPoint x="739" y="740" />
            </Array>
            <mxPoint x="993.5000000000007" y="740" as="sourcePoint" />
          </mxGeometry>
        </mxCell>
        <mxCell id="1j3mInvovo0tcs0GE_Rf-42" style="edgeStyle=orthogonalEdgeStyle;curved=0;rounded=0;orthogonalLoop=1;jettySize=auto;html=1;strokeWidth=2;fillColor=#0050ef;strokeColor=#001DBC;entryX=0.5;entryY=1;entryDx=0;entryDy=0;exitX=0;exitY=0;exitDx=0;exitDy=0;" edge="1" parent="1" source="WkDUcd401ZdPSmuAqSBH-80" target="1j3mInvovo0tcs0GE_Rf-1">
          <mxGeometry relative="1" as="geometry">
            <mxPoint x="560" y="889.17" as="targetPoint" />
            <Array as="points">
              <mxPoint x="732" y="920" />
              <mxPoint x="732" y="920" />
              <mxPoint x="732" y="889" />
              <mxPoint x="870" y="889" />
              <mxPoint x="870" y="740" />
              <mxPoint x="739" y="740" />
            </Array>
            <mxPoint x="843.5000000000007" y="889.17" as="sourcePoint" />
          </mxGeometry>
        </mxCell>
        <mxCell id="1j3mInvovo0tcs0GE_Rf-43" style="edgeStyle=orthogonalEdgeStyle;curved=0;rounded=0;orthogonalLoop=1;jettySize=auto;html=1;strokeWidth=2;fillColor=#0050ef;strokeColor=#001DBC;entryX=0.5;entryY=1;entryDx=0;entryDy=0;exitX=1;exitY=1;exitDx=0;exitDy=0;" edge="1" parent="1" source="WkDUcd401ZdPSmuAqSBH-73" target="1j3mInvovo0tcs0GE_Rf-1">
          <mxGeometry relative="1" as="geometry">
            <mxPoint x="797.5" y="720" as="targetPoint" />
            <Array as="points">
              <mxPoint x="828" y="1120" />
              <mxPoint x="1130" y="1120" />
              <mxPoint x="1130" y="740" />
              <mxPoint x="739" y="740" />
            </Array>
            <mxPoint x="1081.0000000000007" y="720" as="sourcePoint" />
          </mxGeometry>
        </mxCell>
        <mxCell id="1j3mInvovo0tcs0GE_Rf-44" style="edgeStyle=orthogonalEdgeStyle;curved=0;rounded=0;orthogonalLoop=1;jettySize=auto;html=1;strokeWidth=2;fillColor=#e51400;strokeColor=#B20000;entryX=1;entryY=0.5;entryDx=0;entryDy=0;exitX=0;exitY=0.5;exitDx=0;exitDy=0;" edge="1" parent="1" source="1j3mInvovo0tcs0GE_Rf-19" target="1j3mInvovo0tcs0GE_Rf-10">
          <mxGeometry relative="1" as="geometry">
            <Array as="points">
              <mxPoint x="1180" y="64" />
              <mxPoint x="1180" y="310" />
            </Array>
            <mxPoint x="1340" y="40" as="sourcePoint" />
            <mxPoint x="1300" y="64" as="targetPoint" />
          </mxGeometry>
        </mxCell>
        <mxCell id="1j3mInvovo0tcs0GE_Rf-45" style="edgeStyle=orthogonalEdgeStyle;curved=0;rounded=0;orthogonalLoop=1;jettySize=auto;html=1;strokeWidth=2;fillColor=#e51400;strokeColor=#B20000;entryX=1;entryY=0.5;entryDx=0;entryDy=0;exitX=0;exitY=0.5;exitDx=0;exitDy=0;" edge="1" parent="1" source="1j3mInvovo0tcs0GE_Rf-11" target="1j3mInvovo0tcs0GE_Rf-10">
          <mxGeometry relative="1" as="geometry">
            <Array as="points">
              <mxPoint x="1180" y="125" />
              <mxPoint x="1180" y="310" />
            </Array>
            <mxPoint x="850" y="110" as="sourcePoint" />
            <mxPoint x="1310" y="110" as="targetPoint" />
          </mxGeometry>
        </mxCell>
        <mxCell id="1j3mInvovo0tcs0GE_Rf-46" style="edgeStyle=orthogonalEdgeStyle;curved=0;rounded=0;orthogonalLoop=1;jettySize=auto;html=1;strokeWidth=2;fillColor=#e51400;strokeColor=#B20000;entryX=1;entryY=0.5;entryDx=0;entryDy=0;exitX=0;exitY=0.5;exitDx=0;exitDy=0;" edge="1" parent="1" source="1j3mInvovo0tcs0GE_Rf-12" target="1j3mInvovo0tcs0GE_Rf-10">
          <mxGeometry relative="1" as="geometry">
            <Array as="points">
              <mxPoint x="1180" y="200" />
              <mxPoint x="1180" y="310" />
            </Array>
            <mxPoint x="945" y="180.00000000000003" as="sourcePoint" />
            <mxPoint x="970" y="270" as="targetPoint" />
          </mxGeometry>
        </mxCell>
        <mxCell id="1j3mInvovo0tcs0GE_Rf-47" style="edgeStyle=orthogonalEdgeStyle;curved=0;rounded=0;orthogonalLoop=1;jettySize=auto;html=1;strokeWidth=2;fillColor=#e51400;strokeColor=#B20000;entryX=1;entryY=0.5;entryDx=0;entryDy=0;exitX=0;exitY=0.5;exitDx=0;exitDy=0;" edge="1" parent="1" source="1j3mInvovo0tcs0GE_Rf-13" target="1j3mInvovo0tcs0GE_Rf-10">
          <mxGeometry relative="1" as="geometry">
            <Array as="points">
              <mxPoint x="1180" y="275" />
              <mxPoint x="1180" y="310" />
            </Array>
            <mxPoint x="870" y="220.00000000000003" as="sourcePoint" />
            <mxPoint x="1330" y="220.00000000000003" as="targetPoint" />
          </mxGeometry>
        </mxCell>
        <mxCell id="1j3mInvovo0tcs0GE_Rf-48" style="edgeStyle=orthogonalEdgeStyle;curved=0;rounded=0;orthogonalLoop=1;jettySize=auto;html=1;strokeWidth=2;fillColor=#e51400;strokeColor=#B20000;entryX=1;entryY=0.5;entryDx=0;entryDy=0;exitX=0;exitY=0.5;exitDx=0;exitDy=0;" edge="1" parent="1" source="1j3mInvovo0tcs0GE_Rf-14" target="1j3mInvovo0tcs0GE_Rf-10">
          <mxGeometry relative="1" as="geometry">
            <Array as="points">
              <mxPoint x="1180" y="355" />
              <mxPoint x="1180" y="310" />
            </Array>
            <mxPoint x="730" y="219.33" as="sourcePoint" />
            <mxPoint x="1190" y="219.33" as="targetPoint" />
          </mxGeometry>
        </mxCell>
        <mxCell id="1j3mInvovo0tcs0GE_Rf-49" style="edgeStyle=orthogonalEdgeStyle;curved=0;rounded=0;orthogonalLoop=1;jettySize=auto;html=1;strokeWidth=2;fillColor=#e51400;strokeColor=#B20000;exitX=0;exitY=0.5;exitDx=0;exitDy=0;entryX=1;entryY=0.5;entryDx=0;entryDy=0;" edge="1" parent="1" source="1j3mInvovo0tcs0GE_Rf-15" target="1j3mInvovo0tcs0GE_Rf-10">
          <mxGeometry relative="1" as="geometry">
            <Array as="points">
              <mxPoint x="1180" y="435" />
              <mxPoint x="1180" y="310" />
            </Array>
            <mxPoint x="965" y="384.67" as="sourcePoint" />
            <mxPoint x="1425" y="384.67" as="targetPoint" />
          </mxGeometry>
        </mxCell>
        <mxCell id="1j3mInvovo0tcs0GE_Rf-50" style="edgeStyle=orthogonalEdgeStyle;curved=0;rounded=0;orthogonalLoop=1;jettySize=auto;html=1;strokeWidth=2;fillColor=#e51400;strokeColor=#B20000;entryX=1;entryY=0.5;entryDx=0;entryDy=0;exitX=0;exitY=0.5;exitDx=0;exitDy=0;" edge="1" parent="1" source="1j3mInvovo0tcs0GE_Rf-16" target="1j3mInvovo0tcs0GE_Rf-10">
          <mxGeometry relative="1" as="geometry">
            <Array as="points">
              <mxPoint x="1180" y="505" />
              <mxPoint x="1180" y="310" />
            </Array>
            <mxPoint x="870" y="375" as="sourcePoint" />
            <mxPoint x="1330" y="375" as="targetPoint" />
          </mxGeometry>
        </mxCell>
        <mxCell id="1j3mInvovo0tcs0GE_Rf-51" style="edgeStyle=orthogonalEdgeStyle;curved=0;rounded=0;orthogonalLoop=1;jettySize=auto;html=1;strokeWidth=2;fillColor=#e51400;strokeColor=#B20000;entryX=1;entryY=0.5;entryDx=0;entryDy=0;exitX=0;exitY=0.5;exitDx=0;exitDy=0;" edge="1" parent="1" source="1j3mInvovo0tcs0GE_Rf-18" target="1j3mInvovo0tcs0GE_Rf-10">
          <mxGeometry relative="1" as="geometry">
            <Array as="points">
              <mxPoint x="1180" y="575" />
              <mxPoint x="1180" y="310" />
            </Array>
            <mxPoint x="880" y="420" as="sourcePoint" />
            <mxPoint x="1340" y="420" as="targetPoint" />
          </mxGeometry>
        </mxCell>
        <mxCell id="1j3mInvovo0tcs0GE_Rf-52" style="edgeStyle=orthogonalEdgeStyle;curved=0;rounded=0;orthogonalLoop=1;jettySize=auto;html=1;strokeWidth=2;fillColor=#e51400;strokeColor=#B20000;entryX=1;entryY=0.5;entryDx=0;entryDy=0;exitX=0;exitY=0.5;exitDx=0;exitDy=0;" edge="1" parent="1" source="1j3mInvovo0tcs0GE_Rf-17" target="1j3mInvovo0tcs0GE_Rf-10">
          <mxGeometry relative="1" as="geometry">
            <Array as="points">
              <mxPoint x="1180" y="650" />
              <mxPoint x="1180" y="310" />
            </Array>
            <mxPoint x="830" y="420" as="sourcePoint" />
            <mxPoint x="1290" y="420" as="targetPoint" />
          </mxGeometry>
        </mxCell>
        <mxCell id="1j3mInvovo0tcs0GE_Rf-53" style="edgeStyle=orthogonalEdgeStyle;curved=0;rounded=0;orthogonalLoop=1;jettySize=auto;html=1;strokeWidth=2;fillColor=#e51400;strokeColor=#B20000;entryX=1;entryY=0.5;entryDx=0;entryDy=0;exitX=0;exitY=0.5;exitDx=0;exitDy=0;" edge="1" parent="1" source="WkDUcd401ZdPSmuAqSBH-54" target="1j3mInvovo0tcs0GE_Rf-10">
          <mxGeometry relative="1" as="geometry">
            <Array as="points">
              <mxPoint x="920" y="680" />
              <mxPoint x="920" y="310" />
            </Array>
            <mxPoint x="555" y="470" as="sourcePoint" />
            <mxPoint x="1015" y="470" as="targetPoint" />
          </mxGeometry>
        </mxCell>
        <mxCell id="1j3mInvovo0tcs0GE_Rf-54" style="edgeStyle=orthogonalEdgeStyle;curved=0;rounded=0;orthogonalLoop=1;jettySize=auto;html=1;strokeWidth=2;fillColor=#e51400;strokeColor=#B20000;exitX=0;exitY=0.5;exitDx=0;exitDy=0;entryX=1;entryY=0.5;entryDx=0;entryDy=0;" edge="1" parent="1" source="WkDUcd401ZdPSmuAqSBH-54" target="WkDUcd401ZdPSmuAqSBH-90">
          <mxGeometry relative="1" as="geometry">
            <Array as="points">
              <mxPoint x="920" y="680" />
              <mxPoint x="920" y="815" />
            </Array>
            <mxPoint x="980" y="710" as="sourcePoint" />
            <mxPoint x="1440" y="710" as="targetPoint" />
          </mxGeometry>
        </mxCell>
        <mxCell id="1j3mInvovo0tcs0GE_Rf-55" style="edgeStyle=orthogonalEdgeStyle;curved=0;rounded=0;orthogonalLoop=1;jettySize=auto;html=1;strokeWidth=2;fillColor=#e51400;strokeColor=#B20000;entryX=1;entryY=0.5;entryDx=0;entryDy=0;exitX=0;exitY=0.5;exitDx=0;exitDy=0;" edge="1" parent="1" source="WkDUcd401ZdPSmuAqSBH-54" target="WkDUcd401ZdPSmuAqSBH-80">
          <mxGeometry relative="1" as="geometry">
            <Array as="points">
              <mxPoint x="920" y="680" />
              <mxPoint x="920" y="945" />
            </Array>
            <mxPoint x="1412.5" y="1260" as="sourcePoint" />
            <mxPoint x="1301.5" y="690" as="targetPoint" />
          </mxGeometry>
        </mxCell>
        <mxCell id="1j3mInvovo0tcs0GE_Rf-56" value="/controller_info" style="rounded=0;whiteSpace=wrap;html=1;" vertex="1" parent="1">
          <mxGeometry x="963.5" y="40" width="110" height="20" as="geometry" />
        </mxCell>
        <mxCell id="1j3mInvovo0tcs0GE_Rf-57" value="/debug/raw_control_command" style="rounded=0;whiteSpace=wrap;html=1;" vertex="1" parent="1">
          <mxGeometry x="720" y="40" width="169" height="25" as="geometry" />
        </mxCell>
        <mxCell id="1j3mInvovo0tcs0GE_Rf-58" value="/debug/raw_data_command" style="rounded=0;whiteSpace=wrap;html=1;" vertex="1" parent="1">
          <mxGeometry x="525.5" y="45" width="169" height="20" as="geometry" />
        </mxCell>
        <mxCell id="1j3mInvovo0tcs0GE_Rf-59" value="/debug/raw_data_stream" style="rounded=0;whiteSpace=wrap;html=1;" vertex="1" parent="1">
          <mxGeometry x="344" y="35" width="139" height="25" as="geometry" />
        </mxCell>
        <mxCell id="1j3mInvovo0tcs0GE_Rf-60" value="/diagnostics" style="rounded=0;whiteSpace=wrap;html=1;" vertex="1" parent="1">
          <mxGeometry x="74" y="40" width="90" height="20" as="geometry" />
        </mxCell>
        <mxCell id="1j3mInvovo0tcs0GE_Rf-61" value="/events/bumper" style="rounded=0;whiteSpace=wrap;html=1;" vertex="1" parent="1">
          <mxGeometry x="72.5" y="105" width="90" height="25" as="geometry" />
        </mxCell>
        <mxCell id="1j3mInvovo0tcs0GE_Rf-62" value="/events/button" style="rounded=0;whiteSpace=wrap;html=1;" vertex="1" parent="1">
          <mxGeometry x="78.5" y="165" width="89" height="30" as="geometry" />
        </mxCell>
        <mxCell id="1j3mInvovo0tcs0GE_Rf-63" value="/events/cliff" style="rounded=0;whiteSpace=wrap;html=1;" vertex="1" parent="1">
          <mxGeometry x="85" y="235" width="80" height="25" as="geometry" />
        </mxCell>
        <mxCell id="1j3mInvovo0tcs0GE_Rf-64" value="/events/digital_input" style="rounded=0;whiteSpace=wrap;html=1;" vertex="1" parent="1">
          <mxGeometry x="79" y="295" width="120" height="20" as="geometry" />
        </mxCell>
        <mxCell id="1j3mInvovo0tcs0GE_Rf-65" value="/events/power_system" style="rounded=0;whiteSpace=wrap;html=1;" vertex="1" parent="1">
          <mxGeometry x="71" y="355" width="147" height="20" as="geometry" />
        </mxCell>
        <mxCell id="1j3mInvovo0tcs0GE_Rf-66" value="/events/robot_state" style="rounded=0;whiteSpace=wrap;html=1;" vertex="1" parent="1">
          <mxGeometry x="97" y="415" width="110" height="30" as="geometry" />
        </mxCell>
        <mxCell id="1j3mInvovo0tcs0GE_Rf-67" value="/events/wheel_drop" style="rounded=0;whiteSpace=wrap;html=1;" vertex="1" parent="1">
          <mxGeometry x="102.5" y="485" width="120" height="20" as="geometry" />
        </mxCell>
        <mxCell id="1j3mInvovo0tcs0GE_Rf-68" value="kobuki_ros_interfaces/msg/ControllerInfo" style="text;html=1;strokeColor=none;fillColor=none;align=center;verticalAlign=middle;whiteSpace=wrap;rounded=0;fontColor=#FF0080;" vertex="1" parent="1">
          <mxGeometry x="916" y="20" width="224" height="20" as="geometry" />
        </mxCell>
        <mxCell id="1j3mInvovo0tcs0GE_Rf-69" value="std_msgs/msg/Int16MultiArray" style="text;html=1;strokeColor=none;fillColor=none;align=center;verticalAlign=middle;whiteSpace=wrap;rounded=0;fontColor=#FF0080;" vertex="1" parent="1">
          <mxGeometry x="724" y="20" width="164" height="20" as="geometry" />
        </mxCell>
        <mxCell id="1j3mInvovo0tcs0GE_Rf-70" value="std_msgs/msg/String" style="text;html=1;strokeColor=none;fillColor=none;align=center;verticalAlign=middle;whiteSpace=wrap;rounded=0;fontColor=#FF0080;" vertex="1" parent="1">
          <mxGeometry x="541.25" y="25" width="136" height="20" as="geometry" />
        </mxCell>
        <mxCell id="1j3mInvovo0tcs0GE_Rf-71" value="std_msgs/msg/String" style="text;html=1;strokeColor=none;fillColor=none;align=center;verticalAlign=middle;whiteSpace=wrap;rounded=0;fontColor=#FF0080;" vertex="1" parent="1">
          <mxGeometry x="347" y="15" width="136" height="20" as="geometry" />
        </mxCell>
        <mxCell id="1j3mInvovo0tcs0GE_Rf-72" value="diagnostic_msgs/msg/DiagnosticArray" style="text;html=1;strokeColor=none;fillColor=none;align=center;verticalAlign=middle;whiteSpace=wrap;rounded=0;fontColor=#FF0080;" vertex="1" parent="1">
          <mxGeometry x="16" y="20" width="214" height="20" as="geometry" />
        </mxCell>
        <mxCell id="1j3mInvovo0tcs0GE_Rf-73" value="kobuki_ros_interfaces/msg/BumperEvent" style="text;html=1;strokeColor=none;fillColor=none;align=center;verticalAlign=middle;whiteSpace=wrap;rounded=0;fontColor=#FF0080;" vertex="1" parent="1">
          <mxGeometry x="12" y="85" width="234" height="20" as="geometry" />
        </mxCell>
        <mxCell id="1j3mInvovo0tcs0GE_Rf-74" value="kobuki_ros_interfaces/msg/ButtonEvent" style="text;html=1;strokeColor=none;fillColor=none;align=center;verticalAlign=middle;whiteSpace=wrap;rounded=0;fontColor=#FF0080;" vertex="1" parent="1">
          <mxGeometry x="22" y="145" width="224" height="20" as="geometry" />
        </mxCell>
        <mxCell id="1j3mInvovo0tcs0GE_Rf-75" value="kobuki_ros_interfaces/msg/CliffEvent" style="text;html=1;strokeColor=none;fillColor=none;align=center;verticalAlign=middle;whiteSpace=wrap;rounded=0;fontColor=#FF0080;" vertex="1" parent="1">
          <mxGeometry x="27" y="215" width="204" height="20" as="geometry" />
        </mxCell>
        <mxCell id="1j3mInvovo0tcs0GE_Rf-76" value="kobuki_ros_interfaces/msg/DigitalInputEvent" style="text;html=1;strokeColor=none;fillColor=none;align=center;verticalAlign=middle;whiteSpace=wrap;rounded=0;fontColor=#FF0080;" vertex="1" parent="1">
          <mxGeometry x="22" y="275" width="265.5" height="20" as="geometry" />
        </mxCell>
        <mxCell id="1j3mInvovo0tcs0GE_Rf-77" value="kobuki_ros_interfaces/msg/PowerSystemEvent" style="text;html=1;strokeColor=none;fillColor=none;align=center;verticalAlign=middle;whiteSpace=wrap;rounded=0;fontColor=#FF0080;" vertex="1" parent="1">
          <mxGeometry x="22" y="335" width="260" height="20" as="geometry" />
        </mxCell>
        <mxCell id="1j3mInvovo0tcs0GE_Rf-78" value="kobuki_ros_interfaces/msg/RobotStateEvent" style="text;html=1;strokeColor=none;fillColor=none;align=center;verticalAlign=middle;whiteSpace=wrap;rounded=0;fontColor=#FF0080;" vertex="1" parent="1">
          <mxGeometry x="27" y="395" width="260" height="20" as="geometry" />
        </mxCell>
        <mxCell id="1j3mInvovo0tcs0GE_Rf-79" value="kobuki_ros_interfaces/msg/WheelDropEvent" style="text;html=1;strokeColor=none;fillColor=none;align=center;verticalAlign=middle;whiteSpace=wrap;rounded=0;fontColor=#FF0080;" vertex="1" parent="1">
          <mxGeometry x="37.5" y="465" width="250" height="20" as="geometry" />
        </mxCell>
        <mxCell id="1j3mInvovo0tcs0GE_Rf-80" value="/odom" style="rounded=0;whiteSpace=wrap;html=1;" vertex="1" parent="1">
          <mxGeometry x="121.5" y="540" width="60" height="20" as="geometry" />
        </mxCell>
        <mxCell id="1j3mInvovo0tcs0GE_Rf-81" value="/sensors/battery_state" style="rounded=0;whiteSpace=wrap;html=1;" vertex="1" parent="1">
          <mxGeometry x="84.13" y="595" width="129" height="30" as="geometry" />
        </mxCell>
        <mxCell id="1j3mInvovo0tcs0GE_Rf-82" value="/sensors/core" style="rounded=0;whiteSpace=wrap;html=1;" vertex="1" parent="1">
          <mxGeometry x="117" y="665" width="84" height="30" as="geometry" />
        </mxCell>
        <mxCell id="1j3mInvovo0tcs0GE_Rf-83" value="/sensors/dock_ir" style="rounded=0;whiteSpace=wrap;html=1;" vertex="1" parent="1">
          <mxGeometry x="525.75" y="600" width="90" height="30" as="geometry" />
        </mxCell>
        <mxCell id="1j3mInvovo0tcs0GE_Rf-84" value="/sensors/imu_data" style="rounded=0;whiteSpace=wrap;html=1;" vertex="1" parent="1">
          <mxGeometry x="517" y="370" width="110" height="30" as="geometry" />
        </mxCell>
        <mxCell id="1j3mInvovo0tcs0GE_Rf-85" value="/sensors/imu_data_raw" style="rounded=0;whiteSpace=wrap;html=1;" vertex="1" parent="1">
          <mxGeometry x="512" y="455" width="130" height="30" as="geometry" />
        </mxCell>
        <mxCell id="1j3mInvovo0tcs0GE_Rf-86" value="/version_info" style="rounded=0;whiteSpace=wrap;html=1;" vertex="1" parent="1">
          <mxGeometry x="530.75" y="530" width="90" height="30" as="geometry" />
        </mxCell>
        <mxCell id="1j3mInvovo0tcs0GE_Rf-87" value="nav_msgs/msg/Odometry" style="text;html=1;strokeColor=none;fillColor=none;align=center;verticalAlign=middle;whiteSpace=wrap;rounded=0;fontColor=#FF0080;" vertex="1" parent="1">
          <mxGeometry x="78.5" y="520" width="142" height="20" as="geometry" />
        </mxCell>
        <mxCell id="1j3mInvovo0tcs0GE_Rf-88" value="sensor_msgs/msg/BatteryState" style="text;html=1;strokeColor=none;fillColor=none;align=center;verticalAlign=middle;whiteSpace=wrap;rounded=0;fontColor=#FF0080;" vertex="1" parent="1">
          <mxGeometry x="70.25" y="575" width="175.75" height="20" as="geometry" />
        </mxCell>
        <mxCell id="1j3mInvovo0tcs0GE_Rf-89" value="kobuki_ros_interfaces/msg/SensorState" style="text;html=1;strokeColor=none;fillColor=none;align=center;verticalAlign=middle;whiteSpace=wrap;rounded=0;fontColor=#FF0080;" vertex="1" parent="1">
          <mxGeometry x="42.75" y="645" width="224" height="20" as="geometry" />
        </mxCell>
        <mxCell id="1j3mInvovo0tcs0GE_Rf-90" value="kobuki_ros_interfaces/msg/DockInfraRed" style="text;html=1;strokeColor=none;fillColor=none;align=center;verticalAlign=middle;whiteSpace=wrap;rounded=0;fontColor=#FF0080;" vertex="1" parent="1">
          <mxGeometry x="463.75" y="580" width="224" height="20" as="geometry" />
        </mxCell>
        <mxCell id="1j3mInvovo0tcs0GE_Rf-91" value="sensor_msgs/msg/Imu" style="text;html=1;strokeColor=none;fillColor=none;align=center;verticalAlign=middle;whiteSpace=wrap;rounded=0;fontColor=#FF0080;" vertex="1" parent="1">
          <mxGeometry x="510" y="350" width="137" height="20" as="geometry" />
        </mxCell>
        <mxCell id="1j3mInvovo0tcs0GE_Rf-92" value="sensor_msgs/msg/Imu" style="text;html=1;strokeColor=none;fillColor=none;align=center;verticalAlign=middle;whiteSpace=wrap;rounded=0;fontColor=#FF0080;" vertex="1" parent="1">
          <mxGeometry x="505" y="435" width="147" height="20" as="geometry" />
        </mxCell>
        <mxCell id="1j3mInvovo0tcs0GE_Rf-93" value="kobuki_ros_interfaces/msg/VersionInfo" style="text;html=1;strokeColor=none;fillColor=none;align=center;verticalAlign=middle;whiteSpace=wrap;rounded=0;fontColor=#FF0080;" vertex="1" parent="1">
          <mxGeometry x="463.75" y="510" width="224" height="20" as="geometry" />
        </mxCell>
        <mxCell id="1j3mInvovo0tcs0GE_Rf-94" style="edgeStyle=orthogonalEdgeStyle;curved=0;rounded=0;orthogonalLoop=1;jettySize=auto;html=1;strokeWidth=2;fillColor=#0050ef;strokeColor=#001DBC;exitX=0;exitY=0.5;exitDx=0;exitDy=0;entryX=0.5;entryY=1;entryDx=0;entryDy=0;" edge="1" parent="1" source="1j3mInvovo0tcs0GE_Rf-10" target="1j3mInvovo0tcs0GE_Rf-59">
          <mxGeometry relative="1" as="geometry">
            <mxPoint x="454" y="75" as="targetPoint" />
            <Array as="points">
              <mxPoint x="413" y="310" />
            </Array>
            <mxPoint x="794.0000000000011" y="415" as="sourcePoint" />
          </mxGeometry>
        </mxCell>
        <mxCell id="1j3mInvovo0tcs0GE_Rf-95" style="edgeStyle=orthogonalEdgeStyle;curved=0;rounded=0;orthogonalLoop=1;jettySize=auto;html=1;strokeWidth=2;fillColor=#0050ef;strokeColor=#001DBC;entryX=1;entryY=0.5;entryDx=0;entryDy=0;exitX=0;exitY=0.5;exitDx=0;exitDy=0;" edge="1" parent="1" source="1j3mInvovo0tcs0GE_Rf-10" target="1j3mInvovo0tcs0GE_Rf-60">
          <mxGeometry relative="1" as="geometry">
            <mxPoint x="470" y="220.00999999999993" as="targetPoint" />
            <Array as="points">
              <mxPoint x="400" y="310" />
              <mxPoint x="400" y="100" />
              <mxPoint x="300" y="100" />
              <mxPoint x="300" y="50" />
            </Array>
            <mxPoint x="753.5000000000007" y="220.00999999999993" as="sourcePoint" />
          </mxGeometry>
        </mxCell>
        <mxCell id="1j3mInvovo0tcs0GE_Rf-96" style="edgeStyle=orthogonalEdgeStyle;curved=0;rounded=0;orthogonalLoop=1;jettySize=auto;html=1;strokeWidth=2;fillColor=#0050ef;strokeColor=#001DBC;entryX=1;entryY=0.5;entryDx=0;entryDy=0;exitX=0;exitY=0.5;exitDx=0;exitDy=0;" edge="1" parent="1" source="1j3mInvovo0tcs0GE_Rf-10" target="1j3mInvovo0tcs0GE_Rf-62">
          <mxGeometry relative="1" as="geometry">
            <mxPoint x="273.25" y="180.00999999999993" as="targetPoint" />
            <Array as="points">
              <mxPoint x="400" y="310" />
              <mxPoint x="400" y="180" />
            </Array>
            <mxPoint x="556.7500000000007" y="180.00999999999993" as="sourcePoint" />
          </mxGeometry>
        </mxCell>
        <mxCell id="1j3mInvovo0tcs0GE_Rf-97" style="edgeStyle=orthogonalEdgeStyle;curved=0;rounded=0;orthogonalLoop=1;jettySize=auto;html=1;strokeWidth=2;fillColor=#0050ef;strokeColor=#001DBC;entryX=1;entryY=0.5;entryDx=0;entryDy=0;exitX=0;exitY=0.5;exitDx=0;exitDy=0;" edge="1" parent="1" source="1j3mInvovo0tcs0GE_Rf-10" target="1j3mInvovo0tcs0GE_Rf-63">
          <mxGeometry relative="1" as="geometry">
            <mxPoint x="393.75" y="220.01999999999992" as="targetPoint" />
            <Array as="points">
              <mxPoint x="400" y="310" />
              <mxPoint x="400" y="248" />
            </Array>
            <mxPoint x="677.2500000000007" y="220.01999999999992" as="sourcePoint" />
          </mxGeometry>
        </mxCell>
        <mxCell id="1j3mInvovo0tcs0GE_Rf-98" style="edgeStyle=orthogonalEdgeStyle;curved=0;rounded=0;orthogonalLoop=1;jettySize=auto;html=1;strokeWidth=2;fillColor=#0050ef;strokeColor=#001DBC;entryX=1;entryY=0.5;entryDx=0;entryDy=0;exitX=0;exitY=0.5;exitDx=0;exitDy=0;" edge="1" parent="1" source="1j3mInvovo0tcs0GE_Rf-10" target="1j3mInvovo0tcs0GE_Rf-64">
          <mxGeometry relative="1" as="geometry">
            <mxPoint x="317.5" y="284.56999999999994" as="targetPoint" />
            <Array as="points">
              <mxPoint x="400" y="310" />
              <mxPoint x="400" y="305" />
            </Array>
            <mxPoint x="601.0000000000007" y="284.56999999999994" as="sourcePoint" />
          </mxGeometry>
        </mxCell>
        <mxCell id="1j3mInvovo0tcs0GE_Rf-99" style="edgeStyle=orthogonalEdgeStyle;curved=0;rounded=0;orthogonalLoop=1;jettySize=auto;html=1;strokeWidth=2;fillColor=#0050ef;strokeColor=#001DBC;entryX=1;entryY=0.5;entryDx=0;entryDy=0;exitX=0;exitY=0.5;exitDx=0;exitDy=0;" edge="1" parent="1" source="1j3mInvovo0tcs0GE_Rf-10" target="1j3mInvovo0tcs0GE_Rf-65">
          <mxGeometry relative="1" as="geometry">
            <mxPoint x="368.5" y="259.13999999999993" as="targetPoint" />
            <Array as="points">
              <mxPoint x="400" y="310" />
              <mxPoint x="400" y="365" />
            </Array>
            <mxPoint x="652.0000000000007" y="259.13999999999993" as="sourcePoint" />
          </mxGeometry>
        </mxCell>
        <mxCell id="1j3mInvovo0tcs0GE_Rf-100" style="edgeStyle=orthogonalEdgeStyle;curved=0;rounded=0;orthogonalLoop=1;jettySize=auto;html=1;strokeWidth=2;fillColor=#0050ef;strokeColor=#001DBC;entryX=1;entryY=0.5;entryDx=0;entryDy=0;exitX=0;exitY=0.5;exitDx=0;exitDy=0;" edge="1" parent="1" source="1j3mInvovo0tcs0GE_Rf-10" target="1j3mInvovo0tcs0GE_Rf-66">
          <mxGeometry relative="1" as="geometry">
            <mxPoint x="269" y="435.00999999999993" as="targetPoint" />
            <Array as="points">
              <mxPoint x="400" y="310" />
              <mxPoint x="400" y="430" />
            </Array>
            <mxPoint x="552.5000000000007" y="435.00999999999993" as="sourcePoint" />
          </mxGeometry>
        </mxCell>
        <mxCell id="1j3mInvovo0tcs0GE_Rf-101" style="edgeStyle=orthogonalEdgeStyle;curved=0;rounded=0;orthogonalLoop=1;jettySize=auto;html=1;strokeWidth=2;fillColor=#0050ef;strokeColor=#001DBC;entryX=1;entryY=0.25;entryDx=0;entryDy=0;exitX=0;exitY=0.5;exitDx=0;exitDy=0;" edge="1" parent="1" source="1j3mInvovo0tcs0GE_Rf-10" target="1j3mInvovo0tcs0GE_Rf-67">
          <mxGeometry relative="1" as="geometry">
            <mxPoint x="310" y="260.00999999999993" as="targetPoint" />
            <Array as="points">
              <mxPoint x="400" y="310" />
              <mxPoint x="400" y="490" />
            </Array>
            <mxPoint x="593.5000000000007" y="260.00999999999993" as="sourcePoint" />
          </mxGeometry>
        </mxCell>
        <mxCell id="1j3mInvovo0tcs0GE_Rf-102" style="edgeStyle=orthogonalEdgeStyle;curved=0;rounded=0;orthogonalLoop=1;jettySize=auto;html=1;strokeWidth=2;fillColor=#0050ef;strokeColor=#001DBC;entryX=1;entryY=0.5;entryDx=0;entryDy=0;exitX=0;exitY=0.5;exitDx=0;exitDy=0;" edge="1" parent="1" source="1j3mInvovo0tcs0GE_Rf-10" target="1j3mInvovo0tcs0GE_Rf-80">
          <mxGeometry relative="1" as="geometry">
            <mxPoint x="399.9999999999999" y="549.9999999999999" as="targetPoint" />
            <Array as="points">
              <mxPoint x="400" y="310" />
              <mxPoint x="400" y="550" />
            </Array>
            <mxPoint x="998.4999999999977" y="310.0000000000001" as="sourcePoint" />
          </mxGeometry>
        </mxCell>
        <mxCell id="1j3mInvovo0tcs0GE_Rf-103" style="edgeStyle=orthogonalEdgeStyle;curved=0;rounded=0;orthogonalLoop=1;jettySize=auto;html=1;strokeWidth=2;fillColor=#0050ef;strokeColor=#001DBC;entryX=1;entryY=0.5;entryDx=0;entryDy=0;exitX=0;exitY=0.5;exitDx=0;exitDy=0;" edge="1" parent="1" source="1j3mInvovo0tcs0GE_Rf-10" target="1j3mInvovo0tcs0GE_Rf-81">
          <mxGeometry relative="1" as="geometry">
            <mxPoint x="282" y="275.00999999999993" as="targetPoint" />
            <Array as="points">
              <mxPoint x="400" y="310" />
              <mxPoint x="400" y="610" />
            </Array>
            <mxPoint x="565.5000000000007" y="275.00999999999993" as="sourcePoint" />
          </mxGeometry>
        </mxCell>
        <mxCell id="1j3mInvovo0tcs0GE_Rf-104" style="edgeStyle=orthogonalEdgeStyle;curved=0;rounded=0;orthogonalLoop=1;jettySize=auto;html=1;strokeWidth=2;fillColor=#0050ef;strokeColor=#001DBC;entryX=1;entryY=0.5;entryDx=0;entryDy=0;exitX=0;exitY=0.5;exitDx=0;exitDy=0;" edge="1" parent="1" source="1j3mInvovo0tcs0GE_Rf-10" target="1j3mInvovo0tcs0GE_Rf-82">
          <mxGeometry relative="1" as="geometry">
            <mxPoint x="300" y="284.6499999999999" as="targetPoint" />
            <Array as="points">
              <mxPoint x="400" y="310" />
              <mxPoint x="400" y="680" />
            </Array>
            <mxPoint x="583.5000000000007" y="284.6499999999999" as="sourcePoint" />
          </mxGeometry>
        </mxCell>
        <mxCell id="1j3mInvovo0tcs0GE_Rf-105" style="edgeStyle=orthogonalEdgeStyle;curved=0;rounded=0;orthogonalLoop=1;jettySize=auto;html=1;strokeWidth=2;fillColor=#0050ef;strokeColor=#001DBC;entryX=0;entryY=0.5;entryDx=0;entryDy=0;exitX=0;exitY=0.5;exitDx=0;exitDy=0;" edge="1" parent="1" source="1j3mInvovo0tcs0GE_Rf-10" target="1j3mInvovo0tcs0GE_Rf-1">
          <mxGeometry relative="1" as="geometry">
            <mxPoint x="380.76" y="665" as="targetPoint" />
            <Array as="points">
              <mxPoint x="400" y="310" />
              <mxPoint x="400" y="680" />
            </Array>
            <mxPoint x="449.2600000000011" y="295" as="sourcePoint" />
          </mxGeometry>
        </mxCell>
        <mxCell id="1j3mInvovo0tcs0GE_Rf-106" style="edgeStyle=orthogonalEdgeStyle;curved=0;rounded=0;orthogonalLoop=1;jettySize=auto;html=1;strokeWidth=2;fillColor=#0050ef;strokeColor=#001DBC;entryX=0;entryY=0.5;entryDx=0;entryDy=0;exitX=0;exitY=0.5;exitDx=0;exitDy=0;" edge="1" parent="1" source="1j3mInvovo0tcs0GE_Rf-10" target="1j3mInvovo0tcs0GE_Rf-83">
          <mxGeometry relative="1" as="geometry">
            <mxPoint x="300" y="275.06999999999994" as="targetPoint" />
            <Array as="points">
              <mxPoint x="400" y="310" />
              <mxPoint x="400" y="615" />
            </Array>
            <mxPoint x="583.5000000000007" y="275.06999999999994" as="sourcePoint" />
          </mxGeometry>
        </mxCell>
        <mxCell id="1j3mInvovo0tcs0GE_Rf-107" style="edgeStyle=orthogonalEdgeStyle;curved=0;rounded=0;orthogonalLoop=1;jettySize=auto;html=1;strokeWidth=2;fillColor=#0050ef;strokeColor=#001DBC;entryX=1;entryY=0.5;entryDx=0;entryDy=0;exitX=0;exitY=0.5;exitDx=0;exitDy=0;" edge="1" parent="1" source="1j3mInvovo0tcs0GE_Rf-10" target="1j3mInvovo0tcs0GE_Rf-61">
          <mxGeometry relative="1" as="geometry">
            <mxPoint x="490" y="129.99999999999994" as="targetPoint" />
            <Array as="points">
              <mxPoint x="400" y="310" />
              <mxPoint x="400" y="118" />
            </Array>
            <mxPoint x="773.5000000000007" y="129.99999999999994" as="sourcePoint" />
          </mxGeometry>
        </mxCell>
        <mxCell id="1j3mInvovo0tcs0GE_Rf-108" style="edgeStyle=orthogonalEdgeStyle;curved=0;rounded=0;orthogonalLoop=1;jettySize=auto;html=1;strokeWidth=2;fillColor=#0050ef;strokeColor=#001DBC;entryX=0.5;entryY=1;entryDx=0;entryDy=0;exitX=0;exitY=0.5;exitDx=0;exitDy=0;" edge="1" parent="1" source="1j3mInvovo0tcs0GE_Rf-10" target="1j3mInvovo0tcs0GE_Rf-58">
          <mxGeometry relative="1" as="geometry">
            <mxPoint x="490" y="179.01999999999992" as="targetPoint" />
            <Array as="points">
              <mxPoint x="610" y="310" />
            </Array>
            <mxPoint x="773.5000000000007" y="179.01999999999992" as="sourcePoint" />
          </mxGeometry>
        </mxCell>
        <mxCell id="1j3mInvovo0tcs0GE_Rf-109" style="edgeStyle=orthogonalEdgeStyle;curved=0;rounded=0;orthogonalLoop=1;jettySize=auto;html=1;strokeWidth=2;fillColor=#0050ef;strokeColor=#001DBC;entryX=0.5;entryY=1;entryDx=0;entryDy=0;exitX=0;exitY=0.5;exitDx=0;exitDy=0;" edge="1" parent="1" source="1j3mInvovo0tcs0GE_Rf-10" target="1j3mInvovo0tcs0GE_Rf-57">
          <mxGeometry relative="1" as="geometry">
            <mxPoint x="694.5" y="169.46999999999994" as="targetPoint" />
            <Array as="points">
              <mxPoint x="660" y="310" />
              <mxPoint x="660" y="169" />
              <mxPoint x="805" y="169" />
            </Array>
            <mxPoint x="978.0000000000007" y="169.46999999999994" as="sourcePoint" />
          </mxGeometry>
        </mxCell>
        <mxCell id="1j3mInvovo0tcs0GE_Rf-110" style="edgeStyle=orthogonalEdgeStyle;curved=0;rounded=0;orthogonalLoop=1;jettySize=auto;html=1;strokeWidth=2;fillColor=#0050ef;strokeColor=#001DBC;entryX=0;entryY=0.5;entryDx=0;entryDy=0;exitX=0;exitY=0.5;exitDx=0;exitDy=0;" edge="1" parent="1" source="1j3mInvovo0tcs0GE_Rf-10" target="1j3mInvovo0tcs0GE_Rf-85">
          <mxGeometry relative="1" as="geometry">
            <mxPoint x="373" y="269.99999999999994" as="targetPoint" />
            <Array as="points">
              <mxPoint x="400" y="310" />
              <mxPoint x="400" y="470" />
            </Array>
            <mxPoint x="656.5000000000007" y="269.99999999999994" as="sourcePoint" />
          </mxGeometry>
        </mxCell>
        <mxCell id="1j3mInvovo0tcs0GE_Rf-111" style="edgeStyle=orthogonalEdgeStyle;curved=0;rounded=0;orthogonalLoop=1;jettySize=auto;html=1;strokeWidth=2;fillColor=#0050ef;strokeColor=#001DBC;entryX=0;entryY=0.5;entryDx=0;entryDy=0;exitX=0;exitY=0.5;exitDx=0;exitDy=0;" edge="1" parent="1" source="1j3mInvovo0tcs0GE_Rf-10" target="1j3mInvovo0tcs0GE_Rf-86">
          <mxGeometry relative="1" as="geometry">
            <mxPoint x="337.25" y="259.99999999999994" as="targetPoint" />
            <Array as="points">
              <mxPoint x="400" y="310" />
              <mxPoint x="400" y="545" />
            </Array>
            <mxPoint x="620.7500000000007" y="259.99999999999994" as="sourcePoint" />
          </mxGeometry>
        </mxCell>
        <mxCell id="1j3mInvovo0tcs0GE_Rf-112" style="edgeStyle=orthogonalEdgeStyle;curved=0;rounded=0;orthogonalLoop=1;jettySize=auto;html=1;strokeWidth=2;fillColor=#0050ef;strokeColor=#001DBC;entryX=0;entryY=0.5;entryDx=0;entryDy=0;exitX=0;exitY=0.5;exitDx=0;exitDy=0;" edge="1" parent="1" source="1j3mInvovo0tcs0GE_Rf-10" target="1j3mInvovo0tcs0GE_Rf-84">
          <mxGeometry relative="1" as="geometry">
            <mxPoint x="517" y="390" as="targetPoint" />
            <Array as="points">
              <mxPoint x="400" y="310" />
              <mxPoint x="400" y="385" />
            </Array>
            <mxPoint x="779.9999999999973" y="315" as="sourcePoint" />
          </mxGeometry>
        </mxCell>
        <mxCell id="1j3mInvovo0tcs0GE_Rf-114" style="edgeStyle=orthogonalEdgeStyle;curved=0;rounded=0;orthogonalLoop=1;jettySize=auto;html=1;strokeWidth=2;fillColor=#0050ef;strokeColor=#001DBC;exitX=0;exitY=0.5;exitDx=0;exitDy=0;entryX=0.5;entryY=1;entryDx=0;entryDy=0;" edge="1" parent="1" source="1j3mInvovo0tcs0GE_Rf-10" target="1j3mInvovo0tcs0GE_Rf-56">
          <mxGeometry relative="1" as="geometry">
            <mxPoint x="1020" y="150" as="targetPoint" />
            <Array as="points">
              <mxPoint x="710" y="310" />
              <mxPoint x="710" y="235" />
              <mxPoint x="1019" y="235" />
            </Array>
            <mxPoint x="978.0000000000007" y="235" as="sourcePoint" />
          </mxGeometry>
        </mxCell>
        <mxCell id="1j3mInvovo0tcs0GE_Rf-115" style="edgeStyle=orthogonalEdgeStyle;curved=0;rounded=0;orthogonalLoop=1;jettySize=auto;html=1;strokeWidth=2;fillColor=#0050ef;strokeColor=#001DBC;entryX=0;entryY=0.5;entryDx=0;entryDy=0;exitX=0;exitY=0.5;exitDx=0;exitDy=0;" edge="1" parent="1" source="1j3mInvovo0tcs0GE_Rf-10" target="WkDUcd401ZdPSmuAqSBH-82">
          <mxGeometry relative="1" as="geometry">
            <mxPoint x="17.25" y="830" as="targetPoint" />
            <Array as="points">
              <mxPoint x="400" y="310" />
              <mxPoint x="400" y="720" />
              <mxPoint x="100" y="720" />
              <mxPoint x="100" y="890" />
            </Array>
            <mxPoint x="300.7500000000007" y="830" as="sourcePoint" />
          </mxGeometry>
        </mxCell>
        <mxCell id="1j3mInvovo0tcs0GE_Rf-116" style="edgeStyle=orthogonalEdgeStyle;curved=0;rounded=0;orthogonalLoop=1;jettySize=auto;html=1;strokeWidth=2;fillColor=#0050ef;strokeColor=#001DBC;exitX=0;exitY=0.5;exitDx=0;exitDy=0;entryX=0.5;entryY=1;entryDx=0;entryDy=0;" edge="1" parent="1" source="1j3mInvovo0tcs0GE_Rf-10" target="WkDUcd401ZdPSmuAqSBH-74">
          <mxGeometry relative="1" as="geometry">
            <mxPoint x="260" y="970" as="targetPoint" />
            <Array as="points">
              <mxPoint x="400" y="310" />
              <mxPoint x="400" y="720" />
              <mxPoint x="100" y="720" />
              <mxPoint x="100" y="1150" />
              <mxPoint x="1001" y="1150" />
            </Array>
            <mxPoint x="620.7500000000007" y="740" as="sourcePoint" />
          </mxGeometry>
        </mxCell>
        <mxCell id="1j3mInvovo0tcs0GE_Rf-117" style="edgeStyle=orthogonalEdgeStyle;curved=0;rounded=0;orthogonalLoop=1;jettySize=auto;html=1;strokeWidth=2;fillColor=#0050ef;strokeColor=#001DBC;entryX=1;entryY=0.5;entryDx=0;entryDy=0;exitX=0;exitY=1;exitDx=0;exitDy=0;" edge="1" parent="1" source="WkDUcd401ZdPSmuAqSBH-80" target="WkDUcd401ZdPSmuAqSBH-54">
          <mxGeometry relative="1" as="geometry">
            <mxPoint x="1241" y="759.38" as="targetPoint" />
            <Array as="points">
              <mxPoint x="731" y="1060" />
              <mxPoint x="1180" y="1060" />
              <mxPoint x="1180" y="680" />
            </Array>
            <mxPoint x="1524.5000000000007" y="759.38" as="sourcePoint" />
          </mxGeometry>
        </mxCell>
        <mxCell id="1j3mInvovo0tcs0GE_Rf-118" style="edgeStyle=orthogonalEdgeStyle;curved=0;rounded=0;orthogonalLoop=1;jettySize=auto;html=1;strokeWidth=2;fillColor=#0050ef;strokeColor=#001DBC;entryX=1;entryY=0.5;entryDx=0;entryDy=0;exitX=0;exitY=0;exitDx=0;exitDy=0;" edge="1" parent="1" source="WkDUcd401ZdPSmuAqSBH-73" target="WkDUcd401ZdPSmuAqSBH-54">
          <mxGeometry relative="1" as="geometry">
            <mxPoint x="1010" y="810.05" as="targetPoint" />
            <Array as="points">
              <mxPoint x="721" y="1060" />
              <mxPoint x="1180" y="1060" />
              <mxPoint x="1180" y="680" />
            </Array>
            <mxPoint x="1293.5000000000007" y="810.05" as="sourcePoint" />
          </mxGeometry>
        </mxCell>
        <mxCell id="1j3mInvovo0tcs0GE_Rf-119" style="edgeStyle=orthogonalEdgeStyle;curved=0;rounded=0;orthogonalLoop=1;jettySize=auto;html=1;strokeWidth=2;fillColor=#0050ef;strokeColor=#001DBC;exitX=0;exitY=1;exitDx=0;exitDy=0;entryX=1;entryY=0.5;entryDx=0;entryDy=0;" edge="1" parent="1" source="1j3mInvovo0tcs0GE_Rf-10" target="WkDUcd401ZdPSmuAqSBH-54">
          <mxGeometry relative="1" as="geometry">
            <mxPoint x="800" y="600" as="targetPoint" />
            <Array as="points">
              <mxPoint x="798" y="504" />
              <mxPoint x="1140" y="504" />
              <mxPoint x="1140" y="680" />
            </Array>
            <mxPoint x="1090.0000000000007" y="504" as="sourcePoint" />
          </mxGeometry>
        </mxCell>
      </root>
    </mxGraphModel>
  </diagram>
</mxfile>
